<svg width="22" height="22" viewBox="0 0 22 22" fill="none" xmlns="http://www.w3.org/2000/svg">
<path d="M11 6.41663V19.25" stroke="#90A1B9" stroke-width="1.83333" stroke-linecap="round" stroke-linejoin="round"/>
<path d="M2.74998 16.5C2.50686 16.5 2.27371 16.4034 2.1018 16.2315C1.92989 16.0596 1.83331 15.8264 1.83331 15.5833V3.66667C1.83331 3.42355 1.92989 3.19039 2.1018 3.01849C2.27371 2.84658 2.50686 2.75 2.74998 2.75H7.33331C8.30577 2.75 9.2384 3.13631 9.92604 3.82394C10.6137 4.51158 11 5.44421 11 6.41667C11 5.44421 11.3863 4.51158 12.0739 3.82394C12.7616 3.13631 13.6942 2.75 14.6666 2.75H19.25C19.4931 2.75 19.7263 2.84658 19.8982 3.01849C20.0701 3.19039 20.1666 3.42355 20.1666 3.66667V15.5833C20.1666 15.8264 20.0701 16.0596 19.8982 16.2315C19.7263 16.4034 19.4931 16.5 19.25 16.5H13.75C13.0206 16.5 12.3212 16.7897 11.8054 17.3055C11.2897 17.8212 11 18.5207 11 19.25C11 18.5207 10.7102 17.8212 10.1945 17.3055C9.6788 16.7897 8.97933 16.5 8.24998 16.5H2.74998Z" stroke="#90A1B9" stroke-width="1.83333" stroke-linecap="round" stroke-linejoin="round"/>
</svg>
