<svg width="16" height="16" viewBox="0 0 16 16" fill="none" xmlns="http://www.w3.org/2000/svg">
<path d="M8.39066 1.72392C8.14067 1.47385 7.80159 1.33333 7.448 1.33325H2.66666C2.31304 1.33325 1.9739 1.47373 1.72385 1.72378C1.4738 1.97382 1.33333 2.31296 1.33333 2.66659V7.44792C1.3334 7.80151 1.47393 8.1406 1.72399 8.39059L7.52666 14.1933C7.82967 14.4943 8.23949 14.6633 8.66666 14.6633C9.09383 14.6633 9.50365 14.4943 9.80666 14.1933L14.1933 9.80659C14.4944 9.50358 14.6634 9.09375 14.6634 8.66659C14.6634 8.23942 14.4944 7.82959 14.1933 7.52659L8.39066 1.72392Z" stroke="#00D3F2" stroke-width="1.33333" stroke-linecap="round" stroke-linejoin="round"/>
<path d="M5.00001 5.33341C5.1841 5.33341 5.33334 5.18418 5.33334 5.00008C5.33334 4.81599 5.1841 4.66675 5.00001 4.66675C4.81591 4.66675 4.66667 4.81599 4.66667 5.00008C4.66667 5.18418 4.81591 5.33341 5.00001 5.33341Z" fill="#00D3F2" stroke="#00D3F2" stroke-width="1.33333" stroke-linecap="round" stroke-linejoin="round"/>
</svg>
